# xmcd
#
# Track frame offsets:
#	182
#	12582
#	43117
#	57755
#	76020
#	90675
#	105060
#	126592
#	139392
#	166827
#	189370
#	202685
#	215895
#	227985
#
# Disc length: 3223 seconds
#
# Revision: 3
# Processed by: cddbd v1.5.2PL0 Copyright (c) Steve Scherf et al.
# Submitted via: EasyCDDAExtractor 16.0.6.1
#
DISCID=ba0c950e
DTITLE=Terry and McGhee - Jazz and Blues Collection - Terry and McGhee - Cd 41
DYEAR=1952
DGENRE=Blues
TTITLE0=Po' Boy,
TTITLE1=Everybody's Blues
TTITLE2=Trouble In Mind
TTITLE3=I'm A Stranger Here
TTITLE4=Down By The Riverside
TTITLE5=Walk On
TTITLE6=Blues For The Lowlands
TTITLE7=Right On That Shore
TTITLE8=Blowin' The Fuses
TTITLE9=Daisy
TTITLE10=Drinkin' In The Blues
TTITLE11=Doggin' My Heart Around
TTITLE12=Harmonica Hop
TTITLE13=Don't Dog Your Woman
EXTD=
EXTT0=
EXTT1=
EXTT2=
EXTT3=
EXTT4=
EXTT5=
EXTT6=
EXTT7=
EXTT8=
EXTT9=
EXTT10=
EXTT11=
EXTT12=
EXTT13=
PLAYORDER=
